<svg width="895" height="884" viewBox="0 0 895 884" fill="none" xmlns="http://www.w3.org/2000/svg">
<path d="M681.615 52.2931L751.135 168.799L856.029 254.835C891.168 283.685 904.037 331.657 888.044 374.184L840.279 501.192L838.421 636.845C837.784 682.298 808.284 722.307 765.036 736.319L635.945 778.155L528.714 861.278C492.76 889.126 443.131 890.971 405.22 865.937L292.066 791.123L160.234 759.087C116.089 748.375 83.6571 710.711 79.6026 665.446L67.5657 530.309L10.3887 407.296C-8.76351 366.052 0.461785 317.208 33.3576 285.86L131.479 192.159L191.954 70.6975C212.248 30.0512 256.167 6.79396 301.205 12.913L435.612 31.2153L568.261 2.84652C612.683 -6.66321 658.264 13.2372 681.536 52.2253L681.615 52.2931Z" fill="#3787FF"/>
</svg>
