<svg width="287" height="284" viewBox="0 0 287 284" fill="none" xmlns="http://www.w3.org/2000/svg">
<path d="M259.774 68.6379L264.214 111.836L283.035 150.969C289.336 164.087 286.592 179.746 276.208 189.928L245.194 220.334L226.335 259.449C220.012 272.554 206.048 280.18 191.606 278.406L148.494 273.113L106.15 282.754C91.9554 285.979 77.304 279.812 69.6831 267.428L46.9498 230.436L13.0189 203.335C1.65501 194.265 -2.67013 178.955 2.26623 165.272L17.0233 124.43L17.0435 81.0102C17.0555 66.4548 26.329 53.5263 40.1087 48.8719L81.2375 34.9313L115.19 7.85068C126.569 -1.20405 142.455 -2.02205 154.698 5.83603L191.231 29.2987L233.556 38.9803C247.732 42.2197 258.272 54.1505 259.76 68.6075L259.774 68.6379Z" fill="#3787FF"/>
</svg>
