<svg width="179" height="177" viewBox="0 0 179 177" fill="none" xmlns="http://www.w3.org/2000/svg">
<path d="M135.62 10.8041L149.45 33.982L170.318 51.098C177.309 56.8375 179.869 66.381 176.687 74.8414L167.185 100.108L166.815 127.095C166.688 136.138 160.82 144.097 152.216 146.885L126.534 155.208L105.202 171.744C98.0489 177.284 88.1757 177.651 80.6336 172.671L58.1227 157.788L31.8959 151.414C23.1138 149.283 16.6617 141.79 15.8551 132.785L13.4605 105.901L2.08562 81.4286C-1.72455 73.2235 0.110742 63.5064 6.65506 57.2701L26.1755 38.6292L38.2064 14.4655C42.2437 6.37929 50.981 1.75247 59.9409 2.96979L86.6799 6.61087L113.069 0.96717C121.907 -0.924703 130.975 3.0343 135.604 10.7906L135.62 10.8041Z" fill="#3787FF"/>
</svg>
