<svg width="85" height="85" viewBox="0 0 85 85" fill="none" xmlns="http://www.w3.org/2000/svg">
<path d="M64.5014 5.68776L71.0652 16.6879L80.969 24.8112C84.2867 27.5351 85.5018 32.0645 83.9918 36.0797L79.482 48.0715L79.3065 60.8794C79.2463 65.171 76.4611 68.9485 72.3778 70.2715L60.1893 74.2215L50.065 82.0697C46.6702 84.699 41.9844 84.8732 38.405 82.5096L27.7213 75.4459L15.2741 72.4212C11.1061 71.4098 8.04399 67.8536 7.66118 63.5798L6.52469 50.8205L1.12621 39.206C-0.682087 35.3119 0.188936 30.7002 3.29486 27.7404L12.5592 18.8935L18.2691 7.42544C20.1852 3.58774 24.3319 1.39186 28.5842 1.9696L41.2745 3.69765L53.7988 1.01916C57.993 0.121277 62.2967 2.00021 64.4939 5.68136L64.5014 5.68776Z" fill="#3787FF"/>
</svg>
