<svg width="884" height="895" viewBox="0 0 884 895" fill="none" xmlns="http://www.w3.org/2000/svg">
<path d="M735.937 129.998L777.836 259.037L860.996 366.226C888.848 402.161 890.738 451.793 865.697 489.705L790.91 602.928L758.963 734.778C748.244 778.954 710.593 811.41 665.313 815.464L530.153 827.576L407.137 884.8C365.894 903.965 317.095 894.738 285.693 861.908L191.987 763.826L70.5656 703.303C29.904 683.052 6.64976 639.124 12.7524 594.089L31.0378 459.655L2.61747 327.013C-6.89363 282.545 12.9521 236.971 51.9899 213.715L168.476 144.154L254.423 39.1621C283.24 4.03992 331.228 -8.87939 373.781 7.09219L500.763 54.7962L636.399 56.6049C681.824 57.2014 721.845 86.7307 735.874 129.914L735.937 129.998Z" fill="#3787FF"/>
</svg>
