<svg width="33" height="33" viewBox="0 0 33 33" fill="none" xmlns="http://www.w3.org/2000/svg">
<path d="M23.4021 12.0514C25.4599 13.5276 27.9808 14.3962 30.7035 14.3962V9.13823C30.1882 9.13834 29.6743 9.08442 29.1702 8.97723V13.116C26.4477 13.116 23.9271 12.2474 21.8688 10.7713V21.5012C21.8688 26.8689 17.5329 31.22 12.1846 31.22C10.189 31.22 8.33424 30.6145 6.79346 29.5761C8.55201 31.3806 11.0044 32.5001 13.7176 32.5001C19.0662 32.5001 23.4023 28.149 23.4023 22.7811V12.0514H23.4021ZM25.2937 6.74674C24.242 5.59372 23.5515 4.10365 23.4021 2.45631V1.78003H21.949C22.3148 3.87379 23.5623 5.66257 25.2937 6.74674ZM10.1762 25.4572C9.58867 24.684 9.27115 23.7382 9.27258 22.7657C9.27258 20.3108 11.2558 18.3202 13.7025 18.3202C14.1585 18.3201 14.6118 18.3902 15.0463 18.5286V13.1531C14.5385 13.0833 14.026 13.0536 13.5136 13.0645V17.2485C13.0788 17.1101 12.6253 17.0398 12.1692 17.0403C9.72244 17.0403 7.73934 19.0306 7.73934 21.4859C7.73934 23.2219 8.73062 24.725 10.1762 25.4572Z" fill="#FF004F"/>
<path d="M21.8686 10.7712C23.927 12.2473 26.4475 13.1159 29.17 13.1159V8.97712C27.6503 8.65227 26.305 7.85529 25.2935 6.74674C23.5621 5.66246 22.3147 3.87368 21.9489 1.78003H18.1321V22.7809C18.1235 25.2292 16.1437 27.2116 13.7022 27.2116C12.2634 27.2116 10.9853 26.5233 10.1758 25.4572C8.73025 24.725 7.73897 23.2218 7.73897 21.486C7.73897 19.0309 9.72207 17.0404 12.1688 17.0404C12.6376 17.0404 13.0894 17.1136 13.5133 17.2486V13.0646C8.25895 13.1735 4.0332 17.4821 4.0332 22.781C4.0332 25.4262 5.08551 27.8242 6.79342 29.5763C8.3342 30.6145 10.189 31.2201 12.1846 31.2201C17.5329 31.2201 21.8687 26.8688 21.8687 21.5012V10.7712H21.8686Z" fill="black"/>
<path d="M29.1701 8.97707V7.85798C27.7997 7.86007 26.4562 7.47492 25.2935 6.74658C26.3228 7.87742 27.6781 8.65716 29.1701 8.97707ZM21.9489 1.77998C21.914 1.57988 21.8872 1.37847 21.8686 1.17629V0.5H16.5987V21.5011C16.5903 23.949 14.6106 25.9314 12.1688 25.9314C11.452 25.9314 10.7752 25.7606 10.1758 25.4572C10.9853 26.5233 12.2635 27.2114 13.7022 27.2114C16.1435 27.2114 18.1236 25.2292 18.1321 22.781V1.77998H21.9489ZM13.5135 13.0645V11.8732C13.0732 11.8128 12.6292 11.7825 12.1847 11.7827C6.83589 11.7826 2.5 16.1339 2.5 21.5011C2.5 24.866 4.20408 27.8316 6.79356 29.576C5.08565 27.824 4.03334 25.4259 4.03334 22.7808C4.03334 17.482 8.25898 13.1735 13.5135 13.0645Z" fill="#00F2EA"/>
</svg>
